<svg width="25620" height="25620" viewBox="0 0 25620 25620" fill="none" xmlns="http://www.w3.org/2000/svg">
<g clip-path="url(#clip0_17_155)">
<path d="M7367.36 14684.5C6955.25 13482 6949.06 12177.4 7349.73 10971C7750.4 9764.62 8535.8 8722.98 9585.45 8005.91C10635.1 7288.84 11891 6935.94 13160.5 7001.34C14430 7066.75 15961.8 7858.21 16932.2 8679.36L15874 9126.61C15077.6 8452.75 14148.7 8095.46 13106.9 8041.78C12065.1 7988.11 11034.5 8277.71 10173.1 8866.16C9311.77 9454.6 8667.25 10309.4 8338.45 11299.4C8009.65 12289.4 8014.73 13359.9 8352.92 14346.8L7367.36 14684.5Z" fill="white"/>
<path d="M5242.88 15745.3C16357.2 8491.78 6966.72 13507.5 19265.2 8056.77C31563.7 2606.01 19666.5 8789 19666.5 8789L5627 16425.5C5627 16425.5 -5871.46 22998.9 5242.88 15745.3Z" fill="white"/>
<path d="M18204.2 10580.5C18616.3 11783 18622.5 13087.6 18221.8 14294C17821.1 15500.4 17035.7 16542 15986.1 17259.1C14936.4 17976.2 13680.5 18329.1 12411 18263.7C11141.5 18198.3 9609.71 17406.8 8639.31 16585.7L9697.54 16138.4C10493.9 16812.3 11422.8 17169.6 12464.6 17223.2C13506.4 17276.9 14537 16987.3 15398.4 16398.9C16259.7 15810.4 16904.3 14955.6 17233.1 13965.6C17561.9 12975.6 17556.8 11905.1 17218.6 10918.2L18204.2 10580.5Z" fill="white"/>
<path d="M20328.6 9519.67C9214.28 16773.2 18604.8 11757.5 6306.29 17208.2C-5992.22 22659 5905.01 16476 5905.01 16476L19944.5 8839.52C19944.5 8839.52 31443 2266.09 20328.6 9519.67Z" fill="white"/>
<path d="M18080.6 6297.37L18500.5 6414.17C18505.5 6415.62 18510.1 6418.31 18513.8 6422C18517.5 6425.69 18520.2 6430.25 18521.6 6435.26L18638.4 6855.19C18640.2 6861.55 18644.1 6867.15 18649.4 6871.14C18654.7 6875.13 18661.1 6877.29 18667.7 6877.29C18674.3 6877.29 18680.8 6875.13 18686.1 6871.14C18691.4 6867.15 18695.2 6861.55 18697 6855.19L18813.8 6435.26C18815.3 6430.25 18818 6425.69 18821.6 6422C18825.3 6418.31 18829.9 6415.62 18834.9 6414.17L19254.8 6297.37C19261.2 6295.55 19266.8 6291.71 19270.8 6286.43C19274.8 6281.14 19276.9 6274.7 19276.9 6268.08C19276.9 6261.46 19274.8 6255.01 19270.8 6249.73C19266.8 6244.44 19261.2 6240.6 19254.8 6238.78L18834.9 6121.98C18829.9 6120.54 18825.3 6117.84 18821.6 6114.15C18818 6110.47 18815.3 6105.9 18813.8 6100.89L18697 5680.97C18695.2 5674.6 18691.4 5669 18686.1 5665.01C18680.8 5661.02 18674.3 5658.87 18667.7 5658.87C18661.1 5658.87 18654.7 5661.02 18649.4 5665.01C18644.1 5669 18640.2 5674.6 18638.4 5680.97L18521.6 6100.89C18520.2 6105.9 18517.5 6110.47 18513.8 6114.15C18510.1 6117.84 18505.5 6120.54 18500.5 6121.98L18080.6 6238.78C18074.2 6240.6 18068.6 6244.44 18064.7 6249.73C18060.7 6255.01 18058.5 6261.46 18058.5 6268.08C18058.5 6274.7 18060.7 6281.14 18064.7 6286.43C18068.6 6291.71 18074.2 6295.55 18080.6 6297.37Z" fill="white"/>
<path d="M7366.6 19381.4L7786.52 19498.2C7791.54 19499.6 7796.1 19502.3 7799.79 19506C7803.48 19509.7 7806.17 19514.2 7807.62 19519.2L7924.41 19939.2C7926.23 19945.5 7930.08 19951.1 7935.36 19955.1C7940.65 19959.1 7947.09 19961.3 7953.71 19961.3C7960.33 19961.3 7966.77 19959.1 7972.06 19955.1C7977.35 19951.1 7981.19 19945.5 7983.01 19939.2L8099.8 19519.2C8101.25 19514.2 8103.94 19509.7 8107.63 19506C8111.32 19502.3 8115.89 19499.6 8120.9 19498.2L8540.82 19381.4C8547.19 19379.5 8552.79 19375.7 8556.78 19370.4C8560.76 19365.1 8562.92 19358.7 8562.92 19352.1C8562.92 19345.4 8560.76 19339 8556.78 19333.7C8552.79 19328.4 8547.19 19324.6 8540.82 19322.8L8120.9 19206C8115.89 19204.5 8111.32 19201.8 8107.63 19198.1C8103.94 19194.4 8101.25 19189.9 8099.8 19184.9L7983.01 18765C7981.19 18758.6 7977.35 18753 7972.06 18749C7966.77 18745 7960.33 18742.9 7953.71 18742.9C7947.09 18742.9 7940.65 18745 7935.36 18749C7930.08 18753 7926.23 18758.6 7924.41 18765L7807.62 19184.9C7806.17 19189.9 7803.48 19194.4 7799.79 19198.1C7796.1 19201.8 7791.54 19204.5 7786.52 19206L7366.6 19322.8C7360.24 19324.6 7354.63 19328.4 7350.65 19333.7C7346.66 19339 7344.5 19345.4 7344.5 19352.1C7344.5 19358.7 7346.66 19365.1 7350.65 19370.4C7354.63 19375.7 7360.24 19379.5 7366.6 19381.4Z" fill="white"/>
</g>
<defs>
<clipPath id="clip0_17_155">
<rect width="25620" height="25620" fill="white"/>
</clipPath>
</defs>
</svg>
