<svg width="3598" height="2265" viewBox="0 0 3598 2265" fill="none" xmlns="http://www.w3.org/2000/svg">
<path d="M2281.38 365.097L2338.25 380.913C2338.93 381.109 2339.54 381.474 2340.04 381.974C2340.54 382.473 2340.91 383.091 2341.1 383.77L2356.92 440.634C2357.17 441.496 2357.69 442.255 2358.4 442.795C2359.12 443.335 2359.99 443.627 2360.89 443.627C2361.78 443.627 2362.66 443.335 2363.37 442.795C2364.09 442.255 2364.61 441.496 2364.85 440.634L2380.67 383.77C2380.87 383.091 2381.23 382.473 2381.73 381.974C2382.23 381.474 2382.85 381.109 2383.53 380.913L2440.39 365.097C2441.25 364.851 2442.01 364.33 2442.55 363.615C2443.09 362.899 2443.38 362.027 2443.38 361.13C2443.38 360.233 2443.09 359.361 2442.55 358.645C2442.01 357.929 2441.25 357.409 2440.39 357.163L2383.53 341.346C2382.85 341.15 2382.23 340.786 2381.73 340.286C2381.23 339.787 2380.87 339.169 2380.67 338.49L2364.85 281.626C2364.61 280.763 2364.09 280.005 2363.37 279.465C2362.66 278.925 2361.78 278.633 2360.89 278.633C2359.99 278.633 2359.12 278.925 2358.4 279.465C2357.69 280.005 2357.17 280.763 2356.92 281.626L2341.1 338.49C2340.91 339.169 2340.54 339.787 2340.04 340.286C2339.54 340.786 2338.93 341.15 2338.25 341.346L2281.38 357.163C2280.52 357.409 2279.76 357.929 2279.22 358.645C2278.68 359.361 2278.39 360.233 2278.39 361.13C2278.39 362.027 2278.68 362.899 2279.22 363.615C2279.76 364.33 2280.52 364.851 2281.38 365.097Z" fill="black"/>
<path d="M1179.02 1804.85L1221.34 1816.62C1221.85 1816.77 1222.31 1817.04 1222.68 1817.41C1223.05 1817.78 1223.32 1818.24 1223.47 1818.75L1235.24 1861.07C1235.42 1861.71 1235.81 1862.27 1236.34 1862.67C1236.87 1863.08 1237.52 1863.29 1238.19 1863.29C1238.86 1863.29 1239.51 1863.08 1240.04 1862.67C1240.57 1862.27 1240.96 1861.71 1241.14 1861.07L1252.91 1818.75C1253.06 1818.24 1253.33 1817.78 1253.7 1817.41C1254.07 1817.04 1254.53 1816.77 1255.04 1816.62L1297.36 1804.85C1298 1804.67 1298.56 1804.28 1298.96 1803.75C1299.37 1803.22 1299.58 1802.57 1299.58 1801.9C1299.58 1801.23 1299.37 1800.58 1298.96 1800.05C1298.56 1799.52 1298 1799.13 1297.36 1798.95L1255.04 1787.18C1254.53 1787.03 1254.07 1786.76 1253.7 1786.39C1253.33 1786.02 1253.06 1785.56 1252.91 1785.05L1241.14 1742.73C1240.96 1742.09 1240.57 1741.53 1240.04 1741.13C1239.51 1740.73 1238.86 1740.51 1238.19 1740.51C1237.52 1740.51 1236.87 1740.73 1236.34 1741.13C1235.81 1741.53 1235.42 1742.09 1235.24 1742.73L1223.47 1785.05C1223.32 1785.56 1223.05 1786.02 1222.68 1786.39C1222.31 1786.76 1221.85 1787.03 1221.34 1787.18L1179.02 1798.95C1178.38 1799.13 1177.82 1799.52 1177.42 1800.05C1177.01 1800.58 1176.8 1801.23 1176.8 1801.9C1176.8 1802.57 1177.01 1803.22 1177.42 1803.75C1177.82 1804.28 1178.38 1804.67 1179.02 1804.85Z" fill="black"/>
<path d="M932.237 1489.6C2210.05 655.656 1130.43 1232.32 2544.38 605.644C3958.33 -21.0278 2590.51 689.828 2590.51 689.828L976.399 1567.79C976.399 1567.79 -345.575 2323.54 932.237 1489.6Z" fill="black"/>
<path d="M1176.5 1367.62C1129.12 1229.37 1128.41 1079.39 1174.48 940.686C1220.54 801.986 1310.84 682.229 1431.52 599.788C1552.19 517.346 1696.59 476.773 1842.54 484.293C1988.5 491.813 2182.43 600.636 2294 695.043L2172.34 746.463C2080.78 668.991 1956.15 610.083 1836.38 603.912C1716.6 597.741 1598.11 631.036 1499.08 698.69C1400.05 766.343 1325.95 864.618 1288.15 978.439C1250.35 1092.26 1250.93 1215.34 1289.81 1328.79L1176.5 1367.62Z" fill="black"/>
<path d="M2093 570.922C2093 570.922 2175 614.922 2265 621.422C2355 627.922 2560 581.922 2560 581.922L2500.97 606.578L2179 743.422L2093 570.922Z" fill="black"/>
<path d="M2638.83 791.7C1361.02 1625.64 2440.64 1048.98 1026.69 1675.65C-387.263 2302.33 980.557 1591.47 980.557 1591.47L2594.67 713.504C2594.67 713.504 3916.65 -42.2403 2638.83 791.7Z" fill="black"/>
<path d="M2394.57 913.672C2441.95 1051.93 2442.66 1201.91 2396.59 1340.61C2350.53 1479.31 2260.23 1599.07 2139.55 1681.51C2018.88 1763.95 1874.48 1804.52 1728.53 1797C1582.57 1789.48 1388.64 1680.66 1277.07 1586.25L1398.73 1534.83C1490.29 1612.31 1614.92 1671.21 1734.69 1677.38C1854.47 1683.56 1972.96 1650.26 2071.99 1582.61C2171.02 1514.95 2245.12 1416.68 2282.92 1302.86C2320.72 1189.04 2320.14 1065.96 2281.26 952.502L2394.57 913.672Z" fill="black"/>
<path d="M1478.07 1710.38C1478.07 1710.38 1396.07 1666.37 1306.07 1659.88C1216.07 1653.38 1011.07 1699.38 1011.07 1699.38L1070.1 1674.72L1392.07 1537.88L1478.07 1710.38Z" fill="black"/>
</svg>
